<svg xmlns="http://www.w3.org/2000/svg" viewBox="0 0 1200 800" width="1200" height="800" style="background-color: #FFFFFF;">
        <defs>
            <!-- Arrow Marker -->
            <marker id="arrow" markerWidth="10" markerHeight="10" refX="9" refY="3" orient="auto" markerUnits="strokeWidth">
                <path d="M0,0 L0,6 L9,3 z" fill="#000" />
            </marker>
        </defs>
        <g transform="translate(900, 700)">
            <rect x="0" y="0" width="290" height="90" fill="none" stroke="black" stroke-width="2"/>
            <line x1="0" y1="30" x2="290" y2="30" stroke="black" stroke-width="1"/>
            <line x1="0" y1="60" x2="290" y2="60" stroke="black" stroke-width="1"/>
            
            <text x="10" y="20" style="font-family: Arial; font-weight: bold; font-size: 14px;">Project: GFDDE Design</text>
            <text x="10" y="50" style="font-family: Arial; font-size: 12px;">Refrigerant: R717</text>
            <text x="10" y="80" style="font-family: Arial; font-size: 12px;">Date: 2025-12-02</text>
            <text x="150" y="80" style="font-family: Arial; font-size: 12px;">Rev: 1.0</text>
        </g><g id="comp1">
            <circle cx="130" cy="180" r="25" fill="none" stroke="black" stroke-width="2"/>
            <path d="M145,180 L115,165 L115,195 Z" fill="none" stroke="black" stroke-width="2"/>
        <text x="130" y="230" text-anchor="middle" style="font-family: Arial, sans-serif; font-size: 12px; fill: #000000;">C-101</text><text x="130" y="245" text-anchor="middle" style="font-family: Arial, sans-serif; font-size: 10px; fill: #666666;">150 kW</text></g><g id="cond1">
            <circle cx="430" cy="180" r="25" fill="none" stroke="black" stroke-width="2"/>
            <path d="M410,170 L420,190 L430,170 L440,190 L450,170" fill="none" stroke="black" stroke-width="2"/>
        <text x="430" y="230" text-anchor="middle" style="font-family: Arial, sans-serif; font-size: 12px; fill: #000000;">E-101</text><text x="430" y="245" text-anchor="middle" style="font-family: Arial, sans-serif; font-size: 10px; fill: #666666;">180 kW</text></g><g id="evap1">
            <rect x="700" y="160" width="60" height="40" fill="none" stroke="black" stroke-width="2"/>
            <path d="M710,170 L720,190 L730,170 L740,190 L750,170" fill="none" stroke="black" stroke-width="1"/>
            <circle cx="730" cy="145" r="10" fill="none" stroke="black" stroke-width="1"/>
            <path d="M725,145 L735,145 M730,140 L730,150" stroke="black" stroke-width="1"/>
        <text x="730" y="230" text-anchor="middle" style="font-family: Arial, sans-serif; font-size: 12px; fill: #000000;">E-201</text><text x="730" y="245" text-anchor="middle" style="font-family: Arial, sans-serif; font-size: 10px; fill: #666666;">150 kW</text></g><g id="rec1">
            <rect x="110" y="410" width="40" height="40" fill="none" stroke="black" stroke-width="2"/>
            <path d="M110,410 A20,10 0 0,1 150,410" fill="none" stroke="black" stroke-width="2"/>
            <path d="M110,450 A20,10 0 0,0 150,450" fill="none" stroke="black" stroke-width="2"/>
        <text x="130" y="480" text-anchor="middle" style="font-family: Arial, sans-serif; font-size: 12px; fill: #000000;">V-101</text><text x="130" y="495" text-anchor="middle" style="font-family: Arial, sans-serif; font-size: 10px; fill: #666666;">500 kW</text></g><path d="M160,180 L280,180 L280,180 L400,180" style="stroke-width: 2; fill: none; stroke: #000000;" marker-end="url(#arrow)"/><path d="M460,180 L580,180 L580,180 L700,180" style="stroke-width: 2; fill: none; stroke: #000000;" marker-end="url(#arrow)"/><path d="M760,180 L430,180 L430,430 L100,430" style="stroke-width: 2; fill: none; stroke: #000000;" marker-end="url(#arrow)"/></svg>