0
SECTION
2
HEADER
9
$HANDSEED
5
5F
9
$INSUNITS
70
4
9
$ACADVER
1
AC1021
0
ENDSEC
0
SECTION
2
CLASSES
0
ENDSEC
0
SECTION
2
TABLES
0
TABLE
2
LTYPE
5
5D
330
0
100
AcDbSymbolTable
70
5
0
LTYPE
5
2
330
5D
100
AcDbSymbolTableRecord
100
AcDbLinetypeTableRecord
2
CONTINUOUS
3
______
70
0
72
65
73
0
40
0
0
LTYPE
5
3
330
5D
100
AcDbSymbolTableRecord
100
AcDbLinetypeTableRecord
2
DASHED
3
_ _ _ 
70
0
72
65
73
2
40
10
49
5
74
0
49
-5
74
0
0
LTYPE
5
4
330
5D
100
AcDbSymbolTableRecord
100
AcDbLinetypeTableRecord
2
DOTTED
3
. . . 
70
0
72
65
73
2
40
5
49
0
74
0
49
-5
74
0
0
LTYPE
5
6
330
5D
100
AcDbSymbolTableRecord
100
AcDbLinetypeTableRecord
2
ByBlock
3

70
0
72
65
73
0
40
0
0
LTYPE
5
7
330
5D
100
AcDbSymbolTableRecord
100
AcDbLinetypeTableRecord
2
ByLayer
3

70
0
72
65
73
0
40
0
0
ENDTAB
0
TABLE
2
LAYER
5
5E
330
0
100
AcDbSymbolTable
70
7
0
LAYER
5
5
330
5E
100
AcDbSymbolTableRecord
100
AcDbLayerTableRecord
2
0
62
7
70
0
6
CONTINUOUS
390
1
0
LAYER
5
16
330
5E
100
AcDbSymbolTableRecord
100
AcDbLayerTableRecord
2
EQUIPMENT
62
3
70
0
6
CONTINUOUS
390
1
0
LAYER
5
17
330
5E
100
AcDbSymbolTableRecord
100
AcDbLayerTableRecord
2
PIPING
62
5
70
0
6
CONTINUOUS
390
1
0
LAYER
5
18
330
5E
100
AcDbSymbolTableRecord
100
AcDbLayerTableRecord
2
VALVES
62
1
70
0
6
CONTINUOUS
390
1
0
LAYER
5
19
330
5E
100
AcDbSymbolTableRecord
100
AcDbLayerTableRecord
2
INSTRUMENTS
62
6
70
0
6
CONTINUOUS
390
1
0
LAYER
5
1A
330
5E
100
AcDbSymbolTableRecord
100
AcDbLayerTableRecord
2
TEXT
62
7
70
0
6
CONTINUOUS
390
1
0
LAYER
5
1B
330
5E
100
AcDbSymbolTableRecord
100
AcDbLayerTableRecord
2
DIMENSIONS
62
4
70
0
6
CONTINUOUS
390
1
0
ENDTAB
0
TABLE
2
VPORT
5
8
330
0
100
AcDbSymbolTable
70
1
0
VPORT
5
E
330
8
100
AcDbSymbolTableRecord
100
AcDbViewportTableRecord
2
*ACTIVE
40
1000
70
0
0
ENDTAB
0
TABLE
2
STYLE
5
9
330
0
100
AcDbSymbolTable
70
1
0
STYLE
5
F
330
9
100
AcDbSymbolTableRecord
100
AcDbTextStyleTableRecord
2
standard
70
0
40
0
41
1
50
0
71
0
42
1
3
txt
4

0
ENDTAB
0
TABLE
2
VIEW
5
A
330
0
100
AcDbSymbolTable
70
0
0
ENDTAB
0
TABLE
2
UCS
5
B
330
0
100
AcDbSymbolTable
70
0
0
ENDTAB
0
TABLE
2
APPID
5
C
330
0
100
AcDbSymbolTable
70
1
0
APPID
5
10
330
C
100
AcDbSymbolTableRecord
100
AcDbRegAppTableRecord
2
ACAD
70
0
0
ENDTAB
0
TABLE
2
DIMSTYLE
5
D
330
0
100
AcDbSymbolTable
100
AcDbDimStyleTable
70
0
71
1
0
ENDTAB
0
TABLE
2
BLOCK_RECORD
5
5A
330
0
100
AcDbSymbolTable
70
2
0
BLOCK_RECORD
5
5B
330
5A
100
AcDbSymbolTableRecord
100
AcDbBlockTableRecord
2
*Model_Space
70
0
280
0
281
1
0
BLOCK_RECORD
5
5C
330
5A
100
AcDbSymbolTableRecord
100
AcDbBlockTableRecord
2
*Paper_Space
70
0
280
0
281
1
0
ENDTAB
0
ENDSEC
0
SECTION
2
BLOCKS
0
BLOCK
5
11
330
0
100
AcDbEntity
100
AcDbBlockBegin
2
*Model_Space
70
0
10
0
20
0
30
0
3
*Model_Space
1

0
ENDBLK
5
12
330
0
100
AcDbEntity
100
AcDbBlockEnd
0
BLOCK
5
13
330
0
100
AcDbEntity
100
AcDbBlockBegin
2
*Paper_Space
70
0
10
0
20
0
30
0
3
*Paper_Space
1

0
ENDBLK
5
14
330
0
100
AcDbEntity
100
AcDbBlockEnd
0
ENDSEC
0
SECTION
2
ENTITIES
0
CIRCLE
5
1C
330
11
100
AcDbEntity
100
AcDbCircle
8
EQUIPMENT
10
180
20
430
30
0
40
30
0
LINE
5
1D
330
11
100
AcDbEntity
100
AcDbLine
8
EQUIPMENT
10
165
20
421
30
0
11
180
21
430
31
0
0
LINE
5
1E
330
11
100
AcDbEntity
100
AcDbLine
8
EQUIPMENT
10
165
20
439
30
0
11
180
21
430
31
0
0
LINE
5
1F
330
11
100
AcDbEntity
100
AcDbLine
8
EQUIPMENT
10
180
20
430
30
0
11
195
21
421
31
0
0
LINE
5
20
330
11
100
AcDbEntity
100
AcDbLine
8
EQUIPMENT
10
180
20
430
30
0
11
195
21
439
31
0
0
LWPOLYLINE
5
23
330
11
100
AcDbEntity
100
AcDbPolyline
8
EQUIPMENT
6
ByLayer
62
256
370
-1
90
4
70
1
10
855
20
560
10
855
20
30
10
60
20
30
10
60
20
560
0
LINE
5
24
330
11
100
AcDbEntity
100
AcDbLine
8
EQUIPMENT
10
860
20
565
30
0
11
860
21
585
31
0
0
LINE
5
25
330
11
100
AcDbEntity
100
AcDbLine
8
EQUIPMENT
10
866.25
20
565
30
0
11
866.25
21
585
31
0
0
LINE
5
26
330
11
100
AcDbEntity
100
AcDbLine
8
EQUIPMENT
10
872.5
20
565
30
0
11
872.5
21
585
31
0
0
LINE
5
27
330
11
100
AcDbEntity
100
AcDbLine
8
EQUIPMENT
10
878.75
20
565
30
0
11
878.75
21
585
31
0
0
LINE
5
28
330
11
100
AcDbEntity
100
AcDbLine
8
EQUIPMENT
10
885
20
565
30
0
11
885
21
585
31
0
0
LINE
5
29
330
11
100
AcDbEntity
100
AcDbLine
8
EQUIPMENT
10
891.25
20
565
30
0
11
891.25
21
585
31
0
0
LINE
5
2A
330
11
100
AcDbEntity
100
AcDbLine
8
EQUIPMENT
10
897.5
20
565
30
0
11
897.5
21
585
31
0
0
LINE
5
2B
330
11
100
AcDbEntity
100
AcDbLine
8
EQUIPMENT
10
903.75
20
565
30
0
11
903.75
21
585
31
0
0
LWPOLYLINE
5
2D
330
11
100
AcDbEntity
100
AcDbPolyline
8
EQUIPMENT
6
ByLayer
62
256
370
-1
90
4
70
1
10
1105
20
560
10
1105
20
30
10
60
20
30
10
60
20
560
0
LINE
5
2E
330
11
100
AcDbEntity
100
AcDbLine
8
EQUIPMENT
10
1110
20
565
30
0
11
1110
21
585
31
0
0
LINE
5
2F
330
11
100
AcDbEntity
100
AcDbLine
8
EQUIPMENT
10
1116.25
20
565
30
0
11
1116.25
21
585
31
0
0
LINE
5
30
330
11
100
AcDbEntity
100
AcDbLine
8
EQUIPMENT
10
1122.5
20
565
30
0
11
1122.5
21
585
31
0
0
LINE
5
31
330
11
100
AcDbEntity
100
AcDbLine
8
EQUIPMENT
10
1128.75
20
565
30
0
11
1128.75
21
585
31
0
0
LINE
5
32
330
11
100
AcDbEntity
100
AcDbLine
8
EQUIPMENT
10
1135
20
565
30
0
11
1135
21
585
31
0
0
LINE
5
33
330
11
100
AcDbEntity
100
AcDbLine
8
EQUIPMENT
10
1141.25
20
565
30
0
11
1141.25
21
585
31
0
0
LINE
5
34
330
11
100
AcDbEntity
100
AcDbLine
8
EQUIPMENT
10
1147.5
20
565
30
0
11
1147.5
21
585
31
0
0
LINE
5
35
330
11
100
AcDbEntity
100
AcDbLine
8
EQUIPMENT
10
1153.75
20
565
30
0
11
1153.75
21
585
31
0
0
LWPOLYLINE
5
37
330
11
100
AcDbEntity
100
AcDbPolyline
8
EQUIPMENT
6
ByLayer
62
256
370
-1
90
4
70
1
10
455
20
260
10
455
20
30
10
60
20
30
10
60
20
260
0
LINE
5
38
330
11
100
AcDbEntity
100
AcDbLine
8
EQUIPMENT
10
460
20
265
30
0
11
460
21
285
31
0
0
LINE
5
39
330
11
100
AcDbEntity
100
AcDbLine
8
EQUIPMENT
10
465
20
265
30
0
11
465
21
285
31
0
0
LINE
5
3A
330
11
100
AcDbEntity
100
AcDbLine
8
EQUIPMENT
10
470
20
265
30
0
11
470
21
285
31
0
0
LINE
5
3B
330
11
100
AcDbEntity
100
AcDbLine
8
EQUIPMENT
10
475
20
265
30
0
11
475
21
285
31
0
0
LINE
5
3C
330
11
100
AcDbEntity
100
AcDbLine
8
EQUIPMENT
10
480
20
265
30
0
11
480
21
285
31
0
0
LINE
5
3D
330
11
100
AcDbEntity
100
AcDbLine
8
EQUIPMENT
10
485
20
265
30
0
11
485
21
285
31
0
0
LINE
5
3E
330
11
100
AcDbEntity
100
AcDbLine
8
EQUIPMENT
10
490
20
265
30
0
11
490
21
285
31
0
0
LINE
5
3F
330
11
100
AcDbEntity
100
AcDbLine
8
EQUIPMENT
10
495
20
265
30
0
11
495
21
285
31
0
0
LINE
5
40
330
11
100
AcDbEntity
100
AcDbLine
8
EQUIPMENT
10
500
20
265
30
0
11
500
21
285
31
0
0
LINE
5
41
330
11
100
AcDbEntity
100
AcDbLine
8
EQUIPMENT
10
505
20
265
30
0
11
505
21
285
31
0
0
LINE
5
43
330
11
100
AcDbEntity
100
AcDbLine
8
PIPING
10

20

30
0
11

21
NaN
31
0
0
LINE
5
44
330
11
100
AcDbEntity
100
AcDbLine
8
PIPING
10

20
NaN
30
0
11

21
NaN
31
0
0
LINE
5
45
330
11
100
AcDbEntity
100
AcDbLine
8
PIPING
10

20
NaN
30
0
11

21

31
0
0
LINE
5
46
330
11
100
AcDbEntity
100
AcDbLine
8
PIPING
10

20

30
0
11

21
NaN
31
0
0
LINE
5
47
330
11
100
AcDbEntity
100
AcDbLine
8
PIPING
10

20
NaN
30
0
11

21
NaN
31
0
0
LINE
5
48
330
11
100
AcDbEntity
100
AcDbLine
8
PIPING
10

20
NaN
30
0
11

21

31
0
0
LINE
5
49
330
11
100
AcDbEntity
100
AcDbLine
8
PIPING
10

20

30
0
11

21
NaN
31
0
0
LINE
5
4A
330
11
100
AcDbEntity
100
AcDbLine
8
PIPING
10

20
NaN
30
0
11

21
NaN
31
0
0
LINE
5
4B
330
11
100
AcDbEntity
100
AcDbLine
8
PIPING
10

20
NaN
30
0
11

21

31
0
0
LINE
5
4C
330
11
100
AcDbEntity
100
AcDbLine
8
PIPING
10

20

30
0
11

21
NaN
31
0
0
LINE
5
4D
330
11
100
AcDbEntity
100
AcDbLine
8
PIPING
10

20
NaN
30
0
11

21
NaN
31
0
0
LINE
5
4E
330
11
100
AcDbEntity
100
AcDbLine
8
PIPING
10

20
NaN
30
0
11

21

31
0
0
LINE
5
4F
330
11
100
AcDbEntity
100
AcDbLine
8
PIPING
10

20

30
0
11

21
NaN
31
0
0
LINE
5
50
330
11
100
AcDbEntity
100
AcDbLine
8
PIPING
10

20
NaN
30
0
11

21
NaN
31
0
0
LINE
5
51
330
11
100
AcDbEntity
100
AcDbLine
8
PIPING
10

20
NaN
30
0
11

21

31
0
0
LINE
5
52
330
11
100
AcDbEntity
100
AcDbLine
8
PIPING
10

20

30
0
11

21
NaN
31
0
0
LINE
5
53
330
11
100
AcDbEntity
100
AcDbLine
8
PIPING
10

20
NaN
30
0
11

21
NaN
31
0
0
LINE
5
54
330
11
100
AcDbEntity
100
AcDbLine
8
PIPING
10

20
NaN
30
0
11

21

31
0
0
TEXT
5
21
330
11
100
AcDbEntity
100
AcDbText
8
TEXT
10
180
20
465
30
0
40
3
1
CMP-01
50
0
100
AcDbText
0
TEXT
5
22
330
11
100
AcDbEntity
100
AcDbText
8
TEXT
10
180
20
470
30
0
40
2.5
1
165 kW
50
0
100
AcDbText
0
TEXT
5
2C
330
11
100
AcDbEntity
100
AcDbText
8
TEXT
10
885
20
605
30
0
40
3
1
EVP-01
50
0
100
AcDbText
0
TEXT
5
36
330
11
100
AcDbEntity
100
AcDbText
8
TEXT
10
1135
20
605
30
0
40
3
1
EVP-02
50
0
100
AcDbText
0
TEXT
5
42
330
11
100
AcDbEntity
100
AcDbText
8
TEXT
10
485
20
305
30
0
40
3
1
COND-01
50
0
100
AcDbText
0
LWPOLYLINE
5
55
330
11
100
AcDbEntity
100
AcDbPolyline
8
TEXT
6
ByLayer
62
256
370
-1
90
4
70
1
10
1000
20
50
10
1000
20
100
10
300
20
100
10
300
20
50
0
TEXT
5
56
330
11
100
AcDbEntity
100
AcDbText
8
TEXT
10
1010
20
130
30
0
40
5
1
Ammonia Refrigeration System
50
0
100
AcDbText
0
TEXT
5
57
330
11
100
AcDbEntity
100
AcDbText
8
TEXT
10
1010
20
110
30
0
40
3
1
Capacity: 150 kW
50
0
100
AcDbText
0
TEXT
5
58
330
11
100
AcDbEntity
100
AcDbText
8
TEXT
10
1010
20
98
30
0
40
3
1
Refrigerant: R717
50
0
100
AcDbText
0
TEXT
5
59
330
11
100
AcDbEntity
100
AcDbText
8
TEXT
10
1010
20
86
30
0
40
3
1
Date: 12/4/2025
50
0
100
AcDbText
0
ENDSEC
0
SECTION
2
OBJECTS
0
DICTIONARY
5
1
330
0
100
AcDbDictionary
281
1
3
ACAD_GROUP
350
15
0
DICTIONARY
5
15
330
1
100
AcDbDictionary
281
1
0
ENDSEC
0
EOF